<?xml version="1.0" standalone="no"?>
<!DOCTYPE svg PUBLIC "-//W3C//DTD SVG 20010904//EN"
 "http://www.w3.org/TR/2001/REC-SVG-20010904/DTD/svg10.dtd">
<svg version="1.0" xmlns="http://www.w3.org/2000/svg"
 width="134.000000pt" height="54.000000pt" viewBox="0 0 134.000000 54.000000"
 preserveAspectRatio="xMidYMid meet">

<g transform="translate(0.000000,54.000000) scale(0.100000,-0.100000)"
fill="#000000" stroke="none">
<path d="M78 418 c17 -17 17 -224 -1 -231 -6 -3 8 -6 32 -6 35 -1 42 2 33 11
-7 7 -12 34 -12 60 0 44 2 48 24 48 13 0 26 -7 30 -15 10 -27 26 -15 26 20 0
38 -5 42 -34 20 -36 -27 -46 -19 -46 35 l0 50 35 0 c24 0 39 -6 47 -20 18 -28
28 -25 28 10 l0 30 -87 0 c-68 0 -84 -3 -75 -12z"/>
<path d="M270 350 c-10 -6 -11 -10 -2 -10 16 0 17 -131 0 -148 -9 -9 -3 -12
27 -12 30 0 36 3 27 12 -17 17 -15 100 2 124 13 16 18 17 35 7 28 -18 31 -17
31 12 0 29 -10 31 -50 10 -27 -14 -30 -14 -30 0 0 17 -18 19 -40 5z"/>
<path d="M454 349 c-45 -23 -58 -99 -23 -143 29 -37 89 -37 118 0 26 33 28 94
4 123 -21 25 -70 35 -99 20z m74 -42 c17 -36 8 -93 -18 -107 -24 -13 -26 -13
-44 6 -19 19 -22 104 -4 122 20 20 52 10 66 -21z"/>
<path d="M635 335 c-29 -28 -31 -43 -11 -71 13 -16 12 -21 -1 -36 -12 -14 -13
-21 -4 -31 9 -11 8 -17 -4 -27 -21 -18 -19 -36 7 -54 57 -40 159 2 139 56 -7
19 -17 24 -62 28 -39 4 -54 9 -54 20 0 10 12 16 38 18 45 4 73 38 63 77 -5 18
-2 25 9 25 8 0 15 5 15 10 0 6 -25 10 -55 10 -46 0 -60 -4 -80 -25z m73 -36
c2 -27 -1 -38 -14 -43 -23 -9 -44 11 -44 44 0 33 8 42 35 38 15 -2 21 -12 23
-39z m17 -132 c17 -13 17 -15 -3 -35 -12 -12 -29 -22 -38 -22 -23 0 -54 19
-54 33 0 35 59 49 95 24z"/>
<path d="M829 341 c-31 -24 -40 -60 -27 -107 10 -38 33 -54 77 -54 43 0 71 34
71 86 0 76 -67 118 -121 75z m79 -26 c23 -51 4 -125 -33 -125 -36 0 -59 86
-35 131 15 28 54 24 68 -6z"/>
<path d="M1000 350 c-10 -6 -11 -10 -2 -10 16 0 17 -131 0 -148 -9 -9 -3 -12
27 -12 30 0 36 3 27 12 -17 17 -15 100 2 124 13 16 18 17 35 7 28 -18 31 -17
31 12 0 29 -10 31 -50 10 -27 -14 -30 -14 -30 0 0 17 -18 19 -40 5z"/>
<path d="M1173 345 c-18 -8 -33 -19 -33 -25 0 -16 27 -12 34 5 12 31 66 10 66
-25 0 -11 -16 -21 -47 -31 -45 -13 -48 -16 -48 -49 0 -31 3 -35 27 -38 15 -2
36 2 48 8 13 7 20 7 20 0 0 -5 12 -10 27 -10 21 0 24 3 15 12 -7 7 -12 39 -12
72 0 34 -4 66 -8 73 -12 19 -55 23 -89 8z m67 -103 c0 -23 -19 -42 -42 -42
-24 0 -34 26 -18 45 18 22 60 19 60 -3z"/>
</g>
</svg>
